<svg width="524" height="354" viewBox="0 0 524 354" fill="none" xmlns="http://www.w3.org/2000/svg">
<g clip-path="url(#clip0)">
<path d="M85.9074 164.842C93.5644 164.842 99.7717 158.355 99.7717 150.353C99.7717 142.351 93.5644 135.864 85.9074 135.864C78.2503 135.864 72.043 142.351 72.043 150.353C72.043 158.355 78.2503 164.842 85.9074 164.842Z" fill="#FFB8B8"/>
<path d="M39.0605 323.98L42.5711 330.213L67.2459 319.029L62.0645 309.83L39.0605 323.98Z" fill="#FFB8B8"/>
<path d="M40.1131 321.193L47.0266 333.468L47.0269 333.468C47.6055 334.495 47.9847 335.632 48.1431 336.812C48.3015 337.993 48.2358 339.194 47.9498 340.348C47.6639 341.502 47.1632 342.586 46.4765 343.537C45.7897 344.489 44.9303 345.29 43.9473 345.895L43.7041 346.044L32.3848 325.947L40.1131 321.193Z" fill="#2F2E41"/>
<path d="M79.7355 346.435L86.6561 346.434L89.9482 318.538L79.7344 318.539L79.7355 346.435Z" fill="#FFB8B8"/>
<path d="M77.9707 344.073L91.5996 344.072H91.6001C92.7407 344.072 93.8702 344.307 94.9239 344.763C95.9777 345.219 96.9352 345.888 97.7417 346.731C98.5482 347.573 99.188 348.574 99.6245 349.675C100.061 350.777 100.286 351.957 100.286 353.149V353.444L77.9711 353.445L77.9707 344.073Z" fill="#2F2E41"/>
<path d="M51.912 329.533C51.5137 329.534 51.121 329.436 50.7656 329.248C50.4102 329.06 50.1021 328.787 49.8663 328.452L43.192 318.979C42.9884 318.69 42.8429 318.361 42.7645 318.011C42.686 317.662 42.6761 317.3 42.7355 316.946C42.7948 316.593 42.9221 316.255 43.1097 315.955C43.2972 315.654 43.5412 315.397 43.8268 315.197L73.5267 294.467L55.6061 245.224L93.9287 248.529L95.2195 290.845C95.3406 294.699 94.4567 298.515 92.6624 301.884C90.8682 305.253 88.231 308.049 85.0332 309.973L53.1812 329.177C52.7955 329.41 52.3577 329.533 51.912 329.533Z" fill="#2F2E41"/>
<path d="M79.9442 340.771C79.2869 340.77 78.6557 340.503 78.1832 340.025C77.7107 339.548 77.4337 338.898 77.4103 338.211L76.0059 296.987L93.3968 296.029L92.012 337.55C91.9916 338.208 91.7375 338.834 91.2992 339.306C90.8609 339.779 90.2698 340.064 89.6413 340.106L80.1169 340.766C80.0591 340.77 80.0015 340.771 79.9442 340.771Z" fill="#2F2E41"/>
<path d="M98.364 256.714C93.9393 256.714 78.4847 251.513 73.1194 249.659C72.3168 250.331 67.9074 253.776 62.7605 253.146C59.5847 252.757 56.7888 250.878 54.4507 247.562C49.2873 240.239 55.6647 208.834 61.9239 183.777C63.1788 178.712 66.2636 174.353 70.5301 171.616C74.7965 168.879 79.9122 167.977 84.8018 169.1C88.3457 169.918 91.6012 171.752 94.2026 174.396C96.804 177.041 98.6481 180.391 99.5279 184.071C100.706 189.084 99.6926 194.981 98.9524 199.287C98.6044 201.312 98.3295 202.911 98.4235 203.697C98.7868 206.734 100.805 254.365 99.5073 256.4C99.369 256.616 98.9694 256.714 98.364 256.714Z" fill="#6ABD45"/>
<path d="M82.1795 256.799C82.8907 256.246 83.4771 255.536 83.8974 254.721C84.3178 253.905 84.5619 253.003 84.6126 252.078C84.6633 251.153 84.5193 250.228 84.1907 249.367C83.8622 248.507 83.3571 247.732 82.7111 247.097L82.985 189.378L69.9766 191.642L73.7977 247.666C72.8498 248.871 72.3577 250.398 72.4147 251.956C72.4717 253.515 73.0738 254.998 74.107 256.123C75.1402 257.249 76.5326 257.94 78.0204 258.064C79.5082 258.189 80.9881 257.739 82.1795 256.799Z" fill="#FFB8B8"/>
<path d="M85.1872 226.446H71.1756C70.5065 226.444 69.865 226.167 69.3897 225.675C68.9144 225.183 68.6435 224.515 68.6354 223.816L68.2914 184.119C68.2795 182.746 68.5281 181.385 69.0229 180.113C69.5177 178.842 70.2487 177.685 71.1739 176.711C72.099 175.737 73.1998 174.963 74.4127 174.436C75.6255 173.909 76.9263 173.639 78.2398 173.641C79.5533 173.642 80.8535 173.916 82.0651 174.446C83.2767 174.976 84.3757 175.752 85.2985 176.729C86.2214 177.706 86.9498 178.864 87.4416 180.137C87.9334 181.41 88.1788 182.772 88.1637 184.144L87.7272 223.822C87.7173 224.52 87.4456 225.186 86.9705 225.677C86.4955 226.168 85.8552 226.444 85.1872 226.446Z" fill="#6ABD45"/>
<path d="M82.3788 164.782C76.031 164.794 70.0425 159.55 68.9424 153.017C68.5486 150.45 68.7262 147.823 69.4613 145.34C70.2596 142.513 71.6285 139.898 73.4757 137.67C75.323 135.443 77.6058 133.655 80.1701 132.428C82.7344 131.201 85.5207 130.562 88.3412 130.556C91.1616 130.549 93.9506 131.174 96.5202 132.39C98.2184 133.193 99.891 134.346 100.669 136.116C101.446 137.887 100.959 140.361 99.2585 141.158C98.147 141.678 96.7521 141.422 95.7659 142.17C94.3495 143.243 94.7141 145.527 95.3466 147.232C95.9791 148.937 96.6945 151 95.6342 152.454C94.6462 153.809 92.6714 153.767 91.1158 153.257C89.5603 152.747 88.025 151.893 86.4031 152.066C84.0377 152.32 82.3379 154.779 82.0232 157.242C81.7086 159.705 82.4493 162.167 83.1805 164.532L82.3788 164.782Z" fill="#2F2E41"/>
<path d="M147.136 354H1.49808C1.34837 354 1.20479 353.938 1.09893 353.827C0.993066 353.717 0.933594 353.567 0.933594 353.41C0.933594 353.254 0.993066 353.104 1.09893 352.993C1.20479 352.882 1.34837 352.82 1.49808 352.82H147.136C147.285 352.82 147.429 352.882 147.535 352.993C147.641 353.104 147.7 353.254 147.7 353.41C147.7 353.567 147.641 353.717 147.535 353.827C147.429 353.938 147.285 354 147.136 354Z" fill="#CCCCCC"/>
<path d="M514.686 256.347H152.941C150.472 256.344 148.104 255.317 146.358 253.492C144.612 251.668 143.63 249.194 143.627 246.613V13.5052C143.629 11.6146 144.349 9.802 145.628 8.46511C146.907 7.12823 148.641 6.3762 150.45 6.37402H517.059C518.899 6.37621 520.663 7.14122 521.965 8.50122C523.266 9.86122 523.998 11.7051 524 13.6284V246.613C523.997 249.194 523.015 251.668 521.269 253.492C519.523 255.317 517.155 256.344 514.686 256.347Z" fill="#F2F2F2"/>
<path d="M502.99 244.057H165.853C160.911 244.057 156.891 240.122 156.891 235.286V32.293C156.891 28.7063 159.87 25.7881 163.532 25.7881H505.201C508.924 25.7881 511.953 28.7544 511.953 32.4002V235.286C511.953 240.122 507.932 244.057 502.99 244.057Z" fill="white"/>
<path d="M523.87 14.7185H143.496V9.76299C143.5 7.17379 144.486 4.6918 146.238 2.86152C147.991 1.03124 150.366 0.00214693 152.844 0H514.522C517 0.00212509 519.376 1.03121 521.128 2.86149C522.881 4.69178 523.867 7.17378 523.87 9.76299V14.7185Z" fill="#242426"/>
<path d="M160.484 9.9004C161.82 9.9004 162.902 8.76908 162.902 7.37354C162.902 5.97799 161.82 4.84668 160.484 4.84668C159.149 4.84668 158.066 5.97799 158.066 7.37354C158.066 8.76908 159.149 9.9004 160.484 9.9004Z" fill="#EE3535"/>
<path d="M169.662 9.9004C170.997 9.9004 172.08 8.76908 172.08 7.37354C172.08 5.97799 170.997 4.84668 169.662 4.84668C168.327 4.84668 167.244 5.97799 167.244 7.37354C167.244 8.76908 168.327 9.9004 169.662 9.9004Z" fill="#FFE920"/>
<path d="M178.84 9.9004C180.175 9.9004 181.258 8.76908 181.258 7.37354C181.258 5.97799 180.175 4.84668 178.84 4.84668C177.504 4.84668 176.422 5.97799 176.422 7.37354C176.422 8.76908 177.504 9.9004 178.84 9.9004Z" fill="#21E64D"/>
<path d="M326.422 70.1727H260.486C259.503 70.1727 258.56 69.7646 257.865 69.0382C257.17 68.3118 256.779 67.3266 256.779 66.2992C256.779 65.2719 257.17 64.2867 257.865 63.5603C258.56 62.8339 259.503 62.4258 260.486 62.4258H326.422C327.406 62.4258 328.348 62.8339 329.043 63.5603C329.738 64.2867 330.129 65.2719 330.129 66.2992C330.129 67.3266 329.738 68.3118 329.043 69.0382C328.348 69.7646 327.406 70.1727 326.422 70.1727Z" fill="#CCCCCC"/>
<path d="M408.356 70.1727H342.419C341.436 70.1727 340.494 69.7646 339.798 69.0382C339.103 68.3118 338.713 67.3266 338.713 66.2992C338.713 65.2719 339.103 64.2867 339.798 63.5603C340.494 62.8339 341.436 62.4258 342.419 62.4258H408.356C409.339 62.4258 410.282 62.8339 410.977 63.5603C411.672 64.2867 412.063 65.2719 412.063 66.2992C412.063 67.3266 411.672 68.3118 410.977 69.0382C410.282 69.7646 409.339 70.1727 408.356 70.1727Z" fill="#CCCCCC"/>
<path d="M408.356 84.8514H293.65C292.667 84.8514 291.724 84.4433 291.029 83.7169C290.334 82.9905 289.943 82.0053 289.943 80.978C289.943 79.9507 290.334 78.9654 291.029 78.239C291.724 77.5126 292.667 77.1045 293.65 77.1045H408.356C409.339 77.1045 410.282 77.5126 410.977 78.239C411.672 78.9654 412.063 79.9507 412.063 80.978C412.063 82.0053 411.672 82.9905 410.977 83.7169C410.282 84.4433 409.339 84.8514 408.356 84.8514Z" fill="#CCCCCC"/>
<path d="M326.424 55.2909H260.487C259.505 55.2896 258.563 54.881 257.869 54.1547C257.175 53.4284 256.785 52.4439 256.785 51.4174C256.785 50.3909 257.175 49.4064 257.869 48.6801C258.563 47.9539 259.505 47.5452 260.487 47.5439H326.424C326.911 47.5433 327.393 47.643 327.844 47.8374C328.294 48.0318 328.703 48.317 329.048 48.6768C329.392 49.0365 329.666 49.4637 329.852 49.934C330.039 50.4043 330.135 50.9083 330.135 51.4174C330.135 51.9265 330.039 52.4306 329.852 52.9008C329.666 53.3711 329.392 53.7983 329.048 54.1581C328.703 54.5178 328.294 54.803 327.844 54.9974C327.393 55.1918 326.911 55.2915 326.424 55.2909Z" fill="#CCCCCC"/>
<path d="M362.707 55.495H343.98C342.997 55.495 342.054 55.0869 341.359 54.3605C340.664 53.6341 340.273 52.6488 340.273 51.6215C340.273 50.5942 340.664 49.609 341.359 48.8826C342.054 48.1561 342.997 47.748 343.98 47.748H362.707C363.691 47.748 364.633 48.1561 365.328 48.8826C366.024 49.609 366.414 50.5942 366.414 51.6215C366.414 52.6488 366.024 53.6341 365.328 54.3605C364.633 55.0869 363.691 55.495 362.707 55.495Z" fill="#CCCCCC"/>
<path d="M279.215 84.8514H260.487C259.505 84.8502 258.563 84.4415 257.869 83.7152C257.175 82.989 256.785 82.0044 256.785 80.978C256.785 79.9515 257.175 78.967 257.869 78.2407C258.563 77.5144 259.505 77.1058 260.487 77.1045H279.215C279.702 77.1039 280.184 77.2036 280.635 77.398C281.085 77.5924 281.494 77.8776 281.839 78.2373C282.183 78.5971 282.457 79.0243 282.643 79.4945C282.83 79.9648 282.926 80.4689 282.926 80.978C282.926 81.487 282.83 81.9911 282.643 82.4614C282.457 82.9316 282.183 83.3589 281.839 83.7186C281.494 84.0784 281.085 84.3636 280.635 84.5579C280.184 84.7523 279.702 84.8521 279.215 84.8514Z" fill="#CCCCCC"/>
<path d="M326.422 207.624H260.486C259.503 207.624 258.56 207.216 257.865 206.489C257.17 205.763 256.779 204.778 256.779 203.75C256.779 202.723 257.17 201.738 257.865 201.011C258.56 200.285 259.503 199.877 260.486 199.877H326.422C326.909 199.877 327.391 199.977 327.841 200.172C328.291 200.366 328.699 200.652 329.043 201.011C329.388 201.371 329.661 201.798 329.847 202.268C330.033 202.738 330.129 203.242 330.129 203.75C330.129 204.259 330.033 204.763 329.847 205.233C329.661 205.703 329.388 206.13 329.043 206.489C328.699 206.849 328.291 207.134 327.841 207.329C327.391 207.524 326.909 207.624 326.422 207.624Z" fill="#CCCCCC"/>
<path d="M408.356 207.624H342.419C341.436 207.624 340.494 207.216 339.798 206.489C339.103 205.763 338.713 204.778 338.713 203.75C338.713 202.723 339.103 201.738 339.798 201.011C340.494 200.285 341.436 199.877 342.419 199.877H408.356C408.843 199.877 409.325 199.977 409.774 200.172C410.224 200.366 410.633 200.652 410.977 201.011C411.321 201.371 411.594 201.798 411.78 202.268C411.967 202.738 412.063 203.242 412.063 203.75C412.063 204.259 411.967 204.763 411.78 205.233C411.594 205.703 411.321 206.13 410.977 206.489C410.633 206.849 410.224 207.134 409.774 207.329C409.325 207.524 408.843 207.624 408.356 207.624Z" fill="#CCCCCC"/>
<path d="M408.356 222.303H293.65C292.667 222.303 291.724 221.895 291.029 221.168C290.334 220.442 289.943 219.456 289.943 218.429C289.943 217.402 290.334 216.417 291.029 215.69C291.724 214.964 292.667 214.556 293.65 214.556H408.356C408.843 214.555 409.326 214.655 409.776 214.849C410.226 215.044 410.635 215.329 410.98 215.688C411.325 216.048 411.598 216.475 411.785 216.946C411.971 217.416 412.067 217.92 412.067 218.429C412.067 218.938 411.971 219.442 411.785 219.913C411.598 220.383 411.325 220.81 410.98 221.17C410.635 221.53 410.226 221.815 409.776 222.009C409.326 222.204 408.843 222.303 408.356 222.303Z" fill="#CCCCCC"/>
<path d="M326.422 192.741H260.486C259.503 192.741 258.56 192.333 257.865 191.607C257.17 190.88 256.779 189.895 256.779 188.868C256.779 187.84 257.17 186.855 257.865 186.129C258.56 185.402 259.503 184.994 260.486 184.994H326.422C327.406 184.994 328.348 185.402 329.043 186.129C329.738 186.855 330.129 187.84 330.129 188.868C330.129 189.895 329.738 190.88 329.043 191.607C328.348 192.333 327.406 192.741 326.422 192.741Z" fill="#CCCCCC"/>
<path d="M362.707 192.945H343.98C342.997 192.945 342.054 192.537 341.359 191.811C340.664 191.084 340.273 190.099 340.273 189.072C340.273 188.044 340.664 187.059 341.359 186.333C342.054 185.606 342.997 185.198 343.98 185.198H362.707C363.691 185.198 364.633 185.606 365.328 186.333C366.024 187.059 366.414 188.044 366.414 189.072C366.414 190.099 366.024 191.084 365.328 191.811C364.633 192.537 363.691 192.945 362.707 192.945Z" fill="#CCCCCC"/>
<path d="M279.213 222.302H260.486C259.503 222.302 258.56 221.894 257.865 221.167C257.17 220.441 256.779 219.455 256.779 218.428C256.779 217.401 257.17 216.416 257.865 215.689C258.56 214.963 259.503 214.555 260.486 214.555H279.213C279.7 214.554 280.183 214.654 280.633 214.848C281.083 215.043 281.493 215.328 281.837 215.688C282.182 216.047 282.455 216.474 282.642 216.945C282.828 217.415 282.924 217.919 282.924 218.428C282.924 218.937 282.828 219.441 282.642 219.912C282.455 220.382 282.182 220.809 281.837 221.169C281.493 221.529 281.083 221.814 280.633 222.008C280.183 222.203 279.7 222.302 279.213 222.302Z" fill="#CCCCCC"/>
<path d="M309.203 166.039C307.804 166.042 306.46 165.467 305.465 164.44L280.679 138.861C280.192 138.359 279.806 137.761 279.542 137.102C279.278 136.442 279.143 135.735 279.143 135.02C279.143 134.305 279.278 133.598 279.542 132.938C279.806 132.279 280.192 131.681 280.679 131.179L305.364 105.704C306.393 104.647 307.778 104.058 309.22 104.063C310.662 104.067 312.044 104.666 313.066 105.729C314.089 106.801 314.664 108.252 314.664 109.766C314.664 111.28 314.089 112.731 313.066 113.803L294.723 132.973C294.151 133.572 293.83 134.383 293.83 135.229C293.83 136.074 294.151 136.885 294.723 137.484L312.967 156.55C313.712 157.327 314.219 158.318 314.425 159.397C314.631 160.476 314.525 161.594 314.122 162.61C313.719 163.626 313.037 164.494 312.161 165.105C311.285 165.715 310.256 166.04 309.203 166.039V166.039Z" fill="#359733"/>
<path d="M348.697 166.039C347.645 166.04 346.615 165.715 345.74 165.105C344.864 164.494 344.181 163.626 343.778 162.61C343.375 161.594 343.27 160.476 343.476 159.397C343.681 158.318 344.189 157.327 344.934 156.55L363.178 137.484C363.75 136.885 364.071 136.074 364.071 135.229C364.071 134.383 363.75 133.572 363.178 132.973L344.834 113.803C344.327 113.273 343.925 112.643 343.65 111.951C343.376 111.258 343.234 110.516 343.234 109.766C343.234 109.016 343.376 108.274 343.65 107.581C343.925 106.889 344.327 106.259 344.835 105.729C345.857 104.666 347.239 104.067 348.68 104.063C350.122 104.058 351.508 104.647 352.536 105.704L377.222 131.179C377.709 131.681 378.095 132.279 378.359 132.939C378.622 133.598 378.758 134.305 378.758 135.02C378.758 135.735 378.622 136.442 378.359 137.102C378.095 137.761 377.709 138.359 377.222 138.861L352.436 164.44C351.44 165.467 350.096 166.042 348.697 166.039Z" fill="#359733"/>
</g>
<defs>
<clipPath id="clip0">
<rect width="523.066" height="354" fill="white" transform="translate(0.933594)"/>
</clipPath>
</defs>
</svg>
